<svg width="408" height="410" viewBox="0 0 408 410" fill="none" xmlns="http://www.w3.org/2000/svg">
<path d="M17.9024 89.3447L178.266 89.3447V82.3097L17.9024 82.3097V89.3447Z" fill="#EBEBEB"/>
<path d="M169.267 89.3545H162.232V112.615H169.267V89.3545Z" fill="#EBEBEB"/>
<path d="M169.267 89.3545H162.232V96.5436H169.267V89.3545Z" fill="#DBDBDB"/>
<path d="M33.9164 89.3545H26.8813V112.615H33.9164V89.3545Z" fill="#EBEBEB"/>
<path d="M33.9164 89.3545H26.8813V96.5436H33.9164V89.3545Z" fill="#DBDBDB"/>
<path d="M148.326 82.3195V37.501H137.037V82.3195H148.326Z" fill="#C7C7C7"/>
<path d="M148.326 40.0315V35.104H137.037V40.0315H148.326Z" fill="#DBDBDB"/>
<path d="M148.326 48.164V46.3354H137.037V48.164H148.326Z" fill="#DBDBDB"/>
<path d="M148.326 76.4392V71.5117H135.632V76.4392H148.326Z" fill="#DBDBDB"/>
<path d="M137.037 82.3194V30.0327H129.145V82.3194H137.037Z" fill="#DBDBDB"/>
<path d="M135.497 55.0545V34.9502H130.762V55.0545H135.497Z" fill="#EBEBEB"/>
<path d="M78.5849 82.3373L115.77 45.5786L110.222 39.9664L73.0369 76.7251L78.5849 82.3373Z" fill="#C7C7C7"/>
<path d="M86.1785 72.5718L100.476 58.438L97.1473 55.0706L82.8497 69.2044L86.1785 72.5718Z" fill="#DBDBDB"/>
<path d="M129.155 82.3196V42.6113H115.759V82.3196H129.155Z" fill="#A6A6A6"/>
<path d="M129.155 78.1232V74.418H115.759V78.1232H129.155Z" fill="#C7C7C7"/>
<path d="M129.155 71.9828V70.5488H115.759V71.9828H129.155Z" fill="#C7C7C7"/>
<path d="M157.584 82.3288V45.0073H148.335V82.3288H157.584Z" fill="#A6A6A6"/>
<path d="M157.584 78.3634V74.8892H148.335V78.3634H157.584Z" fill="#C7C7C7"/>
<path d="M157.584 56.171V52.6968H148.335V56.171H157.584Z" fill="#C7C7C7"/>
<path d="M157.574 59.905V58.5576H148.326V59.905H157.574Z" fill="#C7C7C7"/>
<path d="M50.3255 34.5075C58.2171 42.2066 59.5452 54.198 57.8802 64.6689C57.8802 64.8998 57.4664 64.8421 57.4664 64.6111C57.4664 62.234 57.5434 59.8665 57.5338 57.5183C57.5338 57.4028 57.4568 57.3066 57.4087 57.2007C55.2821 55.7996 53.5229 53.9084 52.2791 51.6862C50.9607 49.0974 50.441 46.1717 49.4401 43.4578C49.3438 43.1979 49.6229 43.2749 49.7962 43.4096C54.6081 46.9512 56.1287 50.7623 57.4953 55.8534C57.4638 53.1897 57.1835 50.5348 56.658 47.9233C55.7415 43.0008 53.4759 38.4296 50.1138 34.7192C50.0957 34.6898 50.0881 34.6551 50.0922 34.6207C50.0962 34.5864 50.1118 34.5544 50.1362 34.53C50.1606 34.5055 50.1926 34.49 50.227 34.4859C50.2613 34.4819 50.296 34.4895 50.3255 34.5075Z" fill="#A6A6A6"/>
<path d="M48.8438 35.4121C47.4772 35.4121 46.6303 37.6256 45.5716 38.2993C45.4602 38.3897 45.331 38.4556 45.1924 38.4927C45.0538 38.5299 44.9089 38.5373 44.7672 38.5146C44.6255 38.4919 44.4902 38.4395 44.3701 38.361C44.25 38.2824 44.1479 38.1794 44.0703 38.0587C43.0213 36.5958 44.4649 34.7962 45.8122 33.7856C44.9199 34.2858 43.9781 34.6922 43.002 34.9983C42.8687 35.0452 42.7267 35.0621 42.5861 35.0479C42.4455 35.0337 42.3097 34.9888 42.1885 34.9162C42.0672 34.8436 41.9634 34.7452 41.8845 34.628C41.8055 34.5108 41.7534 34.3776 41.7317 34.238C41.2697 32.2458 43.772 31.3508 45.4946 31.3508C44.6574 30.7734 42.2706 29.2047 43.5699 28.4636C44.8691 27.7226 47.66 29.9361 48.5647 30.6771C49.912 31.7646 51.5096 33.4007 51.577 35.1041C51.6251 37.0482 49.8831 35.8259 48.8438 35.4121Z" fill="#DBDBDB"/>
<path d="M49.2284 35.7489C47.4961 34.9501 44.1566 36.0954 43.8775 35.4313C43.3001 34.0936 45.9659 33.1793 47.4095 32.9965C46.0814 32.6404 43.5599 32.0341 43.6177 30.7926C43.7139 29.2335 47.5154 30.5712 49.4401 32.0437C51.8557 33.9011 51.8461 35.7008 51.4419 36.0569C50.8934 36.5477 49.5171 35.874 49.2284 35.7489Z" fill="#EBEBEB"/>
<path d="M68.3031 33.7476C60.1228 41.1676 58.3424 53.0628 59.6416 63.5817C59.6416 63.8223 60.0458 63.7742 60.0554 63.5817C60.142 61.2046 60.1613 58.8371 60.2575 56.4889L60.3923 56.1713C62.5707 54.8591 64.3999 53.0398 65.7239 50.8685C67.1483 48.3278 67.7738 45.4214 68.8806 42.7556C68.9864 42.4957 68.7073 42.5631 68.5245 42.6882C63.5874 46.0469 61.9128 49.8003 60.3441 54.8336C60.4754 52.1733 60.8556 49.5313 61.4798 46.942C62.5877 42.0526 65.0335 37.5676 68.5437 33.9882C68.5756 33.9563 68.5935 33.913 68.5935 33.8679C68.5935 33.8228 68.5756 33.7795 68.5437 33.7476C68.5118 33.7157 68.4685 33.6978 68.4234 33.6978C68.3783 33.6978 68.335 33.7157 68.3031 33.7476Z" fill="#A6A6A6"/>
<path d="M69.7467 34.7C71.1037 34.7963 71.8736 37.0001 72.9033 37.6738C73.0112 37.7687 73.1379 37.8398 73.2752 37.8823C73.4124 37.9248 73.5571 37.9379 73.6997 37.9207C73.8424 37.9034 73.9798 37.8562 74.1029 37.7821C74.2261 37.7081 74.3322 37.6088 74.4143 37.4909C75.521 36.0666 74.1448 34.2092 72.836 33.1506C73.7065 33.7117 74.6319 34.1825 75.598 34.5557C75.7296 34.6077 75.871 34.6302 76.0122 34.6214C76.1534 34.6126 76.2909 34.5728 76.4149 34.5048C76.539 34.4368 76.6465 34.3423 76.7299 34.228C76.8133 34.1137 76.8704 33.9824 76.8973 33.8435C77.4266 31.861 74.9725 30.8793 73.2498 30.7735C74.0967 30.2249 76.5412 28.7428 75.3093 27.8863C74.0774 27.0298 71.1903 29.224 70.2279 29.9458C68.842 30.9852 67.1867 32.5539 67.0616 34.2477C66.9076 36.2302 68.6881 35.0753 69.7467 34.7Z" fill="#DBDBDB"/>
<path d="M69.3428 34.9985C71.1136 34.2767 74.3954 35.5374 74.7033 34.8926C75.3289 33.5838 72.7015 32.5637 71.2772 32.3327C72.6149 32.0247 75.1268 31.5435 75.1268 30.2635C75.1268 28.7045 71.2772 29.8978 69.2658 31.3029C66.7828 33.0641 66.7251 34.8541 67.1101 35.2295C67.649 35.7588 69.0541 35.1429 69.3428 34.9985Z" fill="#EBEBEB"/>
<path d="M59.9299 53.3508C59.3821 57.3202 58.5327 61.242 57.3892 65.0824C57.3739 65.1577 57.3293 65.2238 57.2653 65.2662C57.2012 65.3086 57.1229 65.3238 57.0476 65.3085C56.9723 65.2932 56.9062 65.2486 56.8637 65.1845C56.8213 65.1205 56.8061 65.0422 56.8214 64.9669C57.3604 61.3483 58.342 57.7971 58.8713 54.1881C59.4625 50.5273 59.6753 46.8154 59.5065 43.111C59.16 37.0191 57.5047 30.5325 53.53 25.7879C53.4434 25.6725 53.6263 25.5089 53.7129 25.6147C61.6815 34.9018 60.4496 46.2869 60.4496 47.307C61.5756 43.4574 62.7401 39.0593 67.0035 35.1424C67.1864 34.9692 67.3307 35.0558 67.3019 35.3445C66.5416 42.4662 64.559 46.1906 60.4208 50.0017C60.2572 51.1085 60.1128 52.2345 59.9299 53.3508Z" fill="#A6A6A6"/>
<path d="M53.4532 26.8378C52.0193 26.2026 50.0464 28.0216 48.6413 28.1467C48.4835 28.1845 48.3195 28.1892 48.1598 28.1605C48.0001 28.1317 47.8481 28.0702 47.7133 27.9798C47.5786 27.8894 47.4641 27.772 47.377 27.6351C47.2899 27.4981 47.2321 27.3447 47.2073 27.1843C46.8512 25.144 49.2572 23.9892 51.1627 23.6234C49.9598 23.5465 48.776 23.8737 47.5923 23.5561C47.4292 23.5371 47.2722 23.483 47.1321 23.3975C46.992 23.312 46.872 23.1972 46.7806 23.0609C46.6891 22.9246 46.6283 22.7701 46.6022 22.608C46.5762 22.446 46.5857 22.2802 46.6299 22.1221C47.1592 19.822 50.2003 20.1973 52.0096 20.9769C51.4322 20.0145 49.748 17.1273 51.4515 16.9637C53.1549 16.8001 54.9546 20.5438 55.5224 21.7756C56.3693 23.5849 57.2162 26.0775 56.4174 27.8772C55.5224 29.9367 54.329 27.7906 53.4532 26.8378Z" fill="#DBDBDB"/>
<path d="M53.6942 27.3765C52.2891 25.6924 48.2567 25.1919 48.2952 24.3643C48.3722 22.6897 51.5962 23.0746 53.1841 23.6136C51.9908 22.5742 49.6425 20.7264 50.3643 19.4176C51.2497 17.8489 54.5122 21.1499 55.773 23.6521C57.3513 26.7991 56.4274 28.6469 55.8307 28.8201C55.0127 29.0511 53.9252 27.6653 53.6942 27.3765Z" fill="#EBEBEB"/>
<path d="M65.175 55.4874L68.6877 82.3188H47.313C47.7557 79.9417 51.7304 55.4585 51.7304 55.4585L65.175 55.4874Z" fill="#DBDBDB"/>
<path d="M320.074 62.3591C320.656 59.8905 321.716 57.5595 323.192 55.4972C324.597 53.5724 326.862 52.1737 329.987 51.3012C330.949 51.0125 332.075 50.7045 333.432 50.3388C334.828 49.9995 336.193 49.5423 337.512 48.9722C338.855 48.3993 340.094 47.6092 341.179 46.6336C342.279 45.6404 343.049 44.3338 343.383 42.8899C343.67 41.8515 343.707 40.7596 343.489 39.7044C343.286 38.7563 342.894 37.8592 342.334 37.0674C341.755 36.2689 341.022 35.5947 340.178 35.0849C339.315 34.5503 338.373 34.1541 337.387 33.9108C336.256 33.62 335.077 33.5643 333.923 33.7472C332.874 33.9031 331.85 34.201 330.882 34.6326C329.937 35.0559 329.045 35.5889 328.225 36.2205C327.469 36.7947 326.746 37.4116 326.06 38.0683L320.189 31.3316C321.282 29.8551 322.616 28.5732 324.135 27.5397C325.614 26.5351 327.237 25.7597 328.947 25.2396C330.69 24.7183 332.498 24.443 334.317 24.4216C336.196 24.3947 338.07 24.618 339.89 25.0857C341.963 25.609 343.95 26.4291 345.789 27.5205C347.627 28.6042 349.23 30.0438 350.505 31.755C351.819 33.5421 352.725 35.5952 353.161 37.77C353.65 40.327 353.538 42.9628 352.834 45.4691C352.468 47.0371 351.871 48.542 351.063 49.9346C350.345 51.1339 349.442 52.2122 348.387 53.1297C347.343 54.0265 346.188 54.7865 344.952 55.3913C343.61 56.0379 342.224 56.5879 340.804 57.037C339.543 57.422 338.302 57.7684 337.06 58.0957C335.863 58.4048 334.697 58.8236 333.576 59.3468C332.505 59.8328 331.528 60.5039 330.689 61.3293C329.828 62.2368 329.229 63.361 328.957 64.5822L320.074 62.3591ZM315.445 81.4433L318.284 70.164L327.359 72.4449L324.52 83.7241L315.445 81.4433Z" fill="#EBEBEB"/>
<path d="M33.7339 271.535C34.1469 273.358 34.1992 275.244 33.8878 277.088C33.4285 279.049 32.3319 280.802 30.7697 282.073C30.2308 282.564 29.5667 283.141 28.7775 283.796C27.9605 284.469 27.2038 285.213 26.5159 286.019C25.8068 286.83 25.2376 287.754 24.8317 288.752C24.4245 289.766 24.3371 290.881 24.5815 291.947C24.7314 292.73 25.0608 293.468 25.5439 294.103C25.9857 294.665 26.5354 295.133 27.1607 295.479C27.8036 295.816 28.5069 296.022 29.2299 296.085C29.9756 296.163 30.7289 296.124 31.4626 295.97C32.2985 295.808 33.0936 295.481 33.8012 295.007C34.4485 294.567 35.0314 294.039 35.5335 293.439C36.0225 292.847 36.4422 292.201 36.7846 291.514C37.1044 290.891 37.384 290.248 37.6219 289.589L43.685 292.13C43.4321 293.464 42.9572 294.745 42.2799 295.922C41.6216 297.071 40.7907 298.113 39.8162 299.011C38.831 299.926 37.7193 300.694 36.5152 301.292C35.2779 301.914 33.9642 302.37 32.6079 302.649C31.0649 302.974 29.4831 303.075 27.9114 302.947C26.3432 302.823 24.8154 302.388 23.417 301.667C21.9662 300.903 20.6988 299.832 19.7022 298.53C18.5566 296.992 17.7826 295.21 17.4406 293.323C17.1732 292.166 17.0824 290.975 17.1711 289.791C17.2567 288.763 17.5069 287.756 17.9121 286.808C18.31 285.873 18.8311 284.996 19.4616 284.2C20.1376 283.331 20.8775 282.514 21.6751 281.755C22.3873 281.101 23.0994 280.466 23.8212 279.83C24.519 279.248 25.1631 278.603 25.746 277.906C26.2657 277.233 26.6631 276.474 26.9201 275.663C27.2011 274.781 27.2344 273.839 27.0164 272.94L33.7339 271.535ZM30.635 257.378L32.3961 265.78L25.6594 267.194L23.8982 258.802L30.635 257.378Z" fill="#EBEBEB"/>
<path d="M336.81 185.661C337.943 187.148 338.777 188.841 339.264 190.646C339.652 192.628 339.371 194.682 338.466 196.487C338.186 197.161 337.821 197.96 337.378 198.884C336.911 199.835 336.53 200.828 336.242 201.848C335.935 202.88 335.801 203.957 335.848 205.033C335.903 206.125 336.285 207.174 336.945 208.046C337.405 208.695 338.012 209.226 338.716 209.595C339.353 209.925 340.05 210.121 340.766 210.173C341.491 210.219 342.218 210.118 342.902 209.874C343.608 209.629 344.273 209.278 344.875 208.835C345.569 208.343 346.156 207.714 346.598 206.987C347.019 206.318 347.343 205.592 347.56 204.831C347.754 204.092 347.867 203.334 347.897 202.57C347.937 201.874 347.937 201.177 347.897 200.481L354.46 200.27C354.791 201.583 354.895 202.944 354.768 204.292C354.643 205.617 354.319 206.914 353.806 208.142C353.284 209.381 352.591 210.541 351.747 211.587C350.883 212.676 349.88 213.647 348.763 214.474C347.492 215.413 346.092 216.162 344.606 216.698C343.127 217.235 341.557 217.474 339.986 217.4C338.352 217.308 336.757 216.865 335.309 216.101C333.628 215.175 332.182 213.874 331.084 212.299C330.36 211.358 329.783 210.314 329.371 209.201C329.019 208.231 328.828 207.21 328.803 206.179C328.775 205.162 328.882 204.146 329.121 203.157C329.382 202.088 329.72 201.04 330.131 200.019C330.507 199.124 330.882 198.249 331.286 197.392C331.688 196.568 332.01 195.708 332.248 194.822C332.466 193.991 332.537 193.128 332.46 192.272C332.346 191.355 331.984 190.486 331.411 189.76L336.81 185.661ZM328.149 174.112L333.24 181.012L327.687 185.112L322.596 178.212L328.149 174.112Z" fill="#EBEBEB"/>
<path d="M368.415 168.299C368.382 166.241 368.755 164.198 369.512 162.284C370.452 160.275 372.038 158.639 374.016 157.636C374.7 157.222 375.546 156.76 376.547 156.231C377.562 155.69 378.528 155.062 379.435 154.354C380.383 153.645 381.203 152.78 381.86 151.794C382.519 150.789 382.854 149.607 382.822 148.406C382.839 147.576 382.669 146.753 382.326 145.997C381.983 145.241 381.475 144.571 380.84 144.037C380.23 143.525 379.523 143.141 378.761 142.911C377.976 142.663 377.158 142.537 376.336 142.536C375.4 142.525 374.471 142.698 373.602 143.046C372.807 143.379 372.06 143.816 371.379 144.345C370.718 144.867 370.121 145.464 369.599 146.126C369.119 146.724 368.675 147.351 368.271 148.002L362.323 143.902C362.894 142.526 363.691 141.254 364.681 140.14C365.654 139.058 366.783 138.127 368.03 137.377C369.301 136.62 370.671 136.043 372.101 135.664C373.571 135.277 375.085 135.083 376.605 135.087C378.342 135.088 380.07 135.34 381.735 135.838C383.393 136.325 384.938 137.14 386.277 138.234C387.66 139.381 388.779 140.812 389.559 142.43C390.469 144.344 390.927 146.441 390.897 148.56C390.915 149.862 390.743 151.158 390.387 152.41C390.055 153.494 389.559 154.519 388.914 155.451C388.275 156.365 387.518 157.19 386.662 157.905C385.733 158.681 384.748 159.388 383.717 160.023C382.813 160.571 381.898 161.1 380.984 161.601C380.104 162.082 379.27 162.643 378.491 163.275C377.759 163.867 377.136 164.584 376.653 165.393C376.153 166.271 375.903 167.269 375.931 168.28L368.415 168.299ZM368.55 184.217V174.786H376.134V184.217H368.55Z" fill="#EBEBEB"/>
<path d="M131.167 222.973C130.709 220.967 130.65 218.89 130.993 216.862C131.498 214.703 132.711 212.775 134.439 211.386C135.026 210.837 135.748 210.211 136.623 209.461C137.515 208.713 138.345 207.896 139.106 207.016C139.879 206.119 140.499 205.101 140.945 204.004C141.392 202.888 141.486 201.662 141.214 200.491C141.05 199.631 140.688 198.82 140.155 198.124C139.662 197.528 139.053 197.037 138.365 196.68C137.662 196.304 136.889 196.075 136.094 196.007C135.277 195.931 134.453 195.976 133.65 196.141C132.732 196.326 131.859 196.689 131.08 197.21C130.364 197.698 129.717 198.281 129.155 198.942C128.622 199.591 128.163 200.298 127.789 201.05C127.424 201.735 127.103 202.442 126.826 203.167L120.272 200.357C120.547 198.892 121.064 197.483 121.803 196.189C122.525 194.925 123.437 193.779 124.507 192.792C125.587 191.784 126.805 190.935 128.126 190.271C129.487 189.591 130.929 189.086 132.418 188.769C134.116 188.415 135.856 188.305 137.586 188.442C139.308 188.577 140.986 189.051 142.523 189.838C144.118 190.671 145.511 191.844 146.603 193.273C148.608 196.068 149.599 199.463 149.414 202.897C149.317 204.024 149.044 205.128 148.605 206.169C148.17 207.202 147.6 208.173 146.911 209.057C146.162 210.006 145.348 210.903 144.477 211.742C143.697 212.463 142.918 213.166 142.128 213.84C141.367 214.495 140.664 215.216 140.03 215.995C139.44 216.731 138.978 217.56 138.664 218.45C138.363 219.42 138.33 220.454 138.568 221.443L131.167 222.973ZM134.602 238.515L132.678 229.296L140.098 227.717L142.023 236.947L134.602 238.515Z" fill="#EBEBEB"/>
<path d="M362.593 297.625L375.45 297.356L381.783 297.25C383.891 297.202 385.979 297.25 388.077 297.192L387.654 297.625L387.596 286.856L388.077 287.337L375.306 287.28C371.062 287.28 366.818 287.164 362.564 287.116L362.833 286.856C362.833 288.617 362.747 290.388 362.699 292.188L362.593 297.625ZM362.593 297.625L362.458 292.294C362.458 290.504 362.352 288.685 362.333 286.856V286.596H362.593C366.847 286.548 371.091 286.442 375.335 286.433L388.077 286.375H388.558V286.856V297.625V298.058H388.125C385.979 298.058 383.823 298.058 381.687 298.001L375.277 297.895L362.593 297.625Z" fill="#EBEBEB"/>
<path d="M376.807 311.204L389.665 310.935L395.997 310.829C398.105 310.781 400.193 310.829 402.291 310.771L401.868 311.204L401.82 300.435L402.291 300.916L389.549 300.859C385.305 300.859 381.061 300.743 376.807 300.695L377.077 300.435C377.077 302.196 376.99 303.967 376.952 305.767L376.807 311.204ZM376.807 311.204L376.672 305.873C376.672 304.083 376.567 302.264 376.547 300.435V300.175H376.807C381.061 300.127 385.305 300.021 389.549 300.012L402.291 299.954H402.782V300.435L402.724 311.204V311.638H402.253C400.107 311.638 397.961 311.638 395.814 311.58L389.405 311.474L376.807 311.204Z" fill="#EBEBEB"/>
<path d="M348.358 311.204L361.216 310.935L367.549 310.829C369.647 310.781 371.745 310.829 373.843 310.771L373.419 311.204L373.381 300.435L373.862 300.916L361.12 300.859C356.876 300.859 352.622 300.743 348.378 300.695L348.638 300.435C348.638 302.196 348.561 303.967 348.512 305.767L348.358 311.204ZM348.358 311.204L348.224 305.873C348.176 304.083 348.118 302.264 348.099 300.435V300.175H348.358C352.603 300.127 356.856 300.021 361.101 300.012L373.843 299.954H374.324V300.435L374.343 311.204V311.638H373.92C371.773 311.638 369.618 311.638 367.481 311.58L361.072 311.474L348.358 311.204Z" fill="#EBEBEB"/>
<path d="M19.9233 311.204L32.7712 310.935L39.1037 310.829C41.2114 310.781 43.3094 310.829 45.4074 310.771L44.9743 311.204L44.9262 300.435L45.4074 300.916L32.6942 300.859C28.4404 300.859 24.1963 300.743 19.9521 300.695L20.212 300.435C20.212 302.196 20.1254 303.967 20.0869 305.767L19.9233 311.204ZM19.9233 311.204L19.7789 305.873C19.7789 304.083 19.6731 302.264 19.6538 300.435V300.175H19.9233C24.1674 300.127 28.4116 300.021 32.6653 300.012L45.4074 299.954H45.8886V300.435L45.8308 311.204V311.638H45.4074C43.2613 311.638 41.1055 311.638 38.9594 311.58L32.5498 311.474L19.9233 311.204Z" fill="#EBEBEB"/>
<path d="M19.9233 11.6797L32.7712 11.4102L39.1037 11.2947C41.2114 11.2947 43.3094 11.2947 45.4074 11.2947L44.9743 11.7278L44.9262 0.958657L45.4074 1.43023L32.6942 1.31474C28.4404 1.31474 24.1963 1.20888 19.9521 1.16076L20.212 0.900912C20.212 2.66209 20.1254 4.43289 20.0869 6.22293L19.9233 11.6797ZM19.9233 11.6797L19.7789 6.34804C19.7789 4.54837 19.6731 2.72946 19.6538 0.910538V0.650692H19.9233C24.1674 0.650692 28.4116 0.49671 32.6653 0.49671L45.4074 0.438965H45.8886V0.929783L45.8308 11.6989V12.1224H45.4074C43.2613 12.1224 41.1055 12.1224 38.9594 12.0743L32.5498 11.901L19.9233 11.6797Z" fill="#EBEBEB"/>
<path d="M5.74701 25.2593L18.5949 24.9898L24.9275 24.8743C27.0351 24.8743 29.1235 24.8743 31.2311 24.8743L30.798 25.3074V14.5382L31.2792 15.0098L18.4506 14.904C14.1968 14.904 9.95266 14.7885 5.74701 14.7885L6.00685 14.5286C6.00685 16.2898 5.92024 18.0606 5.88174 19.8506L5.74701 25.2593ZM5.74701 25.2593L5.60265 19.9276C5.60265 18.128 5.49679 16.309 5.47754 14.4901V14.2303H5.74701C9.99115 14.2303 14.2353 14.0763 18.4891 14.0763L31.2311 14.0186H31.7123V14.5094L31.6546 25.2785V25.702H31.2311C29.0754 25.702 26.9292 25.702 24.7831 25.702L18.3736 25.5865L5.74701 25.2593Z" fill="#EBEBEB"/>
<path d="M376.807 11.6893L389.665 11.4198L395.997 11.314C398.105 11.314 400.193 11.314 402.291 11.2562L401.868 11.6893L401.82 0.92016L402.291 1.40136L389.549 1.31474C385.305 1.31474 381.061 1.20888 376.807 1.16076L377.077 0.900912C377.077 2.66209 376.99 4.43289 376.952 6.22293L376.807 11.6893ZM376.807 11.6893L376.672 6.35767C376.672 4.558 376.567 2.7487 376.547 0.92016V0.660314H376.807C381.061 0.612195 385.305 0.515956 389.549 0.506332L402.253 0.438965H402.744V0.92016L402.696 11.6893V12.1224H402.253C400.107 12.1224 397.961 12.1224 395.814 12.1224L389.405 12.0165L376.807 11.6893Z" fill="#EBEBEB"/>
<path d="M238.848 151.284L226 151.554L219.668 151.66C217.56 151.708 215.462 151.66 213.364 151.717L213.797 151.284L213.845 162.054L213.364 161.572L226.106 161.64C230.36 161.64 234.604 161.746 238.848 161.794L238.588 162.054C238.588 160.292 238.675 158.522 238.713 156.731L238.848 151.284ZM238.848 151.284L238.992 156.616C238.992 158.416 239.098 160.225 239.118 162.054V162.313H238.848C234.604 162.313 230.36 162.458 226.106 162.467L213.364 162.525H212.883V162.034L212.941 151.265V150.832H213.364C215.51 150.832 217.666 150.832 219.812 150.88L226.222 150.986L238.848 151.284Z" fill="#EBEBEB"/>
<path d="M224.634 137.705L211.786 137.974L205.453 138.08C203.346 138.08 201.248 138.08 199.15 138.138L199.583 137.705L199.631 148.474L199.15 147.993L211.892 148.06C216.136 148.06 220.389 148.166 224.634 148.214L224.374 148.474C224.374 146.713 224.451 144.942 224.499 143.152L224.634 137.705ZM224.634 137.705L224.768 143.037C224.816 144.836 224.884 146.646 224.893 148.474V148.734H224.624C220.38 148.782 216.126 148.878 211.882 148.888L199.14 148.946H198.659V148.464L198.716 137.695V137.262H199.188C201.334 137.262 203.49 137.262 205.636 137.31L212.046 137.416L224.634 137.705Z" fill="#EBEBEB"/>
<path d="M0.329102 359.824L51.2492 359.593L102.169 359.506L204 359.343L305.831 359.506L356.751 359.593L407.671 359.824L356.751 360.065L305.831 360.151L204 360.305L102.169 360.151L51.2492 360.065L0.329102 359.824Z" fill="#263238"/>
<path d="M204 409.561C299.88 409.561 377.605 401.995 377.605 392.661C377.605 383.328 299.88 375.762 204 375.762C108.12 375.762 30.394 383.328 30.394 392.661C30.394 401.995 108.12 409.561 204 409.561Z" fill="#EBEBEB"/>
<path d="M374.343 253.933C370.686 250.353 365.961 246.022 360.369 247.572C355.115 249.025 353.103 254.761 352.16 259.544C350.947 265.713 350.004 271.93 349.023 278.137C348.041 284.345 347.098 290.649 346.203 296.952C345.69 300.494 345.189 304.039 344.702 307.587C344.451 309.357 344.204 311.128 343.961 312.899C343.72 314.641 343.431 316.383 343.335 318.134C343.335 318.693 344.182 318.77 344.297 318.24C344.981 315.286 345.26 312.206 345.693 309.213C346.126 306.22 346.569 303.169 347.002 300.157C347.877 294.161 348.792 288.175 349.687 282.179C350.582 276.184 351.525 270.207 352.487 264.221C353.296 259.14 353.681 252.836 358.175 249.487C359.397 248.653 360.811 248.142 362.284 248.004C363.757 247.866 365.24 248.105 366.596 248.698C369.551 249.834 371.918 251.951 374.237 254.049C374.343 254.116 374.439 254.01 374.343 253.933Z" fill="#263238"/>
<path d="M369.368 250.276C369.368 250.276 361.89 247.591 358.204 253.038C354.518 258.485 358.926 272.363 392.946 280.187C391.951 269.554 389.186 259.161 384.766 249.439C377.471 233.53 364.469 239.555 369.368 250.276Z" fill="#E0E0E0"/>
<path d="M390.992 277.917C390.479 276.965 389.906 276.045 389.279 275.164C388.711 274.288 388.134 273.413 387.557 272.546C387.124 271.892 386.671 271.238 386.229 270.622C386.229 270.468 386.229 270.304 386.286 270.14L386.402 269.255C386.488 268.62 386.585 267.975 386.671 267.33C386.758 266.685 386.873 266.07 386.998 265.405C387.076 264.725 387.225 264.054 387.441 263.404C387.441 263.298 387.306 263.25 387.297 263.404C387.224 263.79 387.121 264.169 386.989 264.539L386.758 265.396C386.594 266.041 386.44 266.685 386.296 267.321C386.152 267.956 386.046 268.524 385.94 269.12C385.892 269.419 385.853 269.707 385.815 269.996C385.208 269.13 384.583 268.273 383.948 267.436C382.138 265.059 380.233 262.769 378.25 260.526C378.25 260.526 378.25 260.526 378.25 260.468C378.433 256.898 378.347 253.356 379.136 249.882C379.136 249.786 379.02 249.728 378.991 249.824C378.094 253.139 377.667 256.563 377.721 259.997C377.018 259.208 376.297 258.419 375.575 257.639C373.91 255.859 372.226 254.097 370.503 252.384C370.436 252.317 370.32 252.384 370.388 252.49C373.275 255.579 375.979 258.794 378.635 262.066C376.557 262.032 374.479 262.109 372.409 262.297C370.108 262.461 367.818 262.759 365.527 263.076C365.422 263.076 365.45 263.24 365.527 263.23C367.804 262.895 370.099 262.69 372.399 262.615C374.622 262.518 376.826 262.615 379.049 262.615C380.486 264.385 381.901 266.175 383.293 267.985H383.005C382.485 267.985 381.965 267.985 381.445 267.985C380.406 267.985 379.376 268.081 378.347 268.168C376.232 268.343 374.132 268.665 372.062 269.13C372.042 269.13 372.022 269.138 372.008 269.152C371.993 269.167 371.985 269.186 371.985 269.207C371.985 269.227 371.993 269.247 372.008 269.261C372.022 269.276 372.042 269.284 372.062 269.284C374.151 269.043 376.249 268.851 378.347 268.774C379.309 268.774 380.358 268.774 381.359 268.774H383.005C383.292 268.813 383.585 268.787 383.861 268.697C384.772 269.884 385.683 271.074 386.594 272.267C387.316 273.23 388.028 274.192 388.731 275.154C389.433 276.117 390.097 277.224 390.886 278.148C390.925 278.08 391.031 277.994 390.992 277.917Z" fill="#263238"/>
<path d="M372.62 258.004C371.414 257.85 370.198 257.792 368.983 257.831C367.77 257.831 366.548 257.831 365.335 257.908C365.229 257.908 365.239 258.062 365.335 258.062C366.567 257.966 367.799 257.946 369.031 257.966C370.263 257.985 371.417 258.1 372.601 258.062C372.659 258.062 372.659 258.014 372.62 258.004Z" fill="#263238"/>
<path d="M383.304 260.747C383.438 259.583 383.583 258.418 383.833 257.273C383.833 257.252 383.825 257.233 383.81 257.218C383.796 257.204 383.776 257.196 383.756 257.196C383.736 257.196 383.716 257.204 383.702 257.218C383.687 257.233 383.679 257.252 383.679 257.273C383.506 258.418 383.284 259.554 383.121 260.699C383.034 261.267 382.957 261.844 382.88 262.412C382.783 262.948 382.738 263.493 382.745 264.038C382.752 264.06 382.766 264.079 382.784 264.092C382.802 264.105 382.824 264.113 382.847 264.113C382.869 264.113 382.891 264.105 382.909 264.092C382.927 264.079 382.941 264.06 382.948 264.038C383.049 263.502 383.106 262.958 383.121 262.412C383.169 261.854 383.236 261.296 383.304 260.747Z" fill="#263238"/>
<path d="M381.08 247.87C380.781 249.006 380.483 250.151 380.281 251.296C380.175 251.883 380.079 252.47 380.002 253.058C379.896 253.625 379.857 254.203 379.886 254.78C379.886 254.793 379.891 254.805 379.9 254.814C379.909 254.823 379.922 254.828 379.934 254.828C379.947 254.828 379.959 254.823 379.968 254.814C379.977 254.805 379.982 254.793 379.982 254.78C380.117 254.244 380.204 253.696 380.242 253.144C380.319 252.576 380.406 252.018 380.502 251.45C380.714 250.267 380.926 249.092 381.224 247.928C381.234 247.832 381.08 247.774 381.08 247.87Z" fill="#263238"/>
<path d="M336.81 316.874C336.617 314.737 336.406 312.591 336.184 310.455C335.729 306.22 335.219 301.989 334.654 297.761C334.086 293.555 333.547 289.33 332.864 285.134C332.618 283.172 332.183 281.238 331.565 279.36C331.345 278.558 330.944 277.818 330.394 277.196C329.843 276.574 329.157 276.086 328.389 275.77C324.385 274.394 321.652 278.542 320.074 281.477C320.026 281.564 320.151 281.631 320.209 281.554C321.171 280.158 323.846 276.261 326.888 276.444C328.928 276.559 330.564 278.012 331.545 283.103C333.99 295.797 336.194 321.599 336.454 323.245C336.588 324.14 337.214 324.101 337.224 323.139C337.185 321.079 336.945 318.972 336.81 316.874Z" fill="#263238"/>
<path d="M321.104 279.947C321.104 279.947 324.607 267.59 316.869 273.768C303.992 284.056 303.54 306.393 303.54 306.393C303.54 306.393 326.426 293.102 329.265 284.335C333.509 271.304 321.104 279.947 321.104 279.947Z" fill="#E0E0E0"/>
<path d="M325.435 286.01C323.644 286.375 321.816 286.616 320.007 286.876L317.427 287.241C316.85 287.318 316.263 287.376 315.676 287.444C317.379 285.095 319.102 282.757 320.738 280.36C320.753 280.34 320.76 280.314 320.756 280.289C320.753 280.264 320.739 280.241 320.719 280.226C320.698 280.21 320.673 280.204 320.647 280.207C320.622 280.211 320.599 280.224 320.584 280.245C319.219 281.644 317.934 283.119 316.735 284.662L315.714 281.775C315.329 280.668 314.906 279.571 314.627 278.426C314.627 278.33 314.454 278.426 314.482 278.474C314.79 279.6 315.012 280.765 315.32 281.9C315.628 283.036 315.945 284.075 316.33 285.143C315.493 286.231 314.685 287.347 313.905 288.473C313.51 287.357 313.02 286.279 312.683 285.143C312.683 285.047 312.5 285.095 312.529 285.143C312.943 286.404 313.164 287.703 313.549 288.993C313.02 289.763 312.5 290.533 312 291.303C311.037 292.737 310.2 294.19 309.353 295.653C309.287 295.681 309.231 295.73 309.195 295.793C309.158 295.855 309.143 295.927 309.151 295.999C307.707 298.501 306.331 301.033 304.974 303.592C304.964 303.61 304.961 303.632 304.967 303.651C304.972 303.671 304.985 303.688 305.003 303.698C305.021 303.709 305.042 303.711 305.062 303.706C305.082 303.7 305.099 303.687 305.109 303.669C306.466 301.138 307.996 298.675 309.545 296.259C309.788 296.179 310.041 296.13 310.296 296.115L311.085 295.941C311.672 295.816 312.259 295.662 312.846 295.518C314.011 295.229 315.156 294.95 316.34 294.748C316.436 294.748 316.388 294.584 316.34 294.604C314.954 294.864 313.568 295.027 312.163 295.181C311.499 295.258 310.845 295.345 310.19 295.451H310.094C310.909 294.206 311.743 292.968 312.596 291.736C313.424 290.533 314.28 289.339 315.137 288.146C315.936 288.04 316.715 287.829 317.504 287.684L320.161 287.164C321.931 286.808 323.702 286.414 325.483 286.125C325.579 286.183 325.531 285.99 325.435 286.01Z" fill="#263238"/>
<path d="M311.682 287.232C311.576 286.905 311.48 286.578 311.374 286.27C311.159 285.587 310.983 284.893 310.845 284.191C310.845 284.095 310.681 284.143 310.7 284.191C310.854 284.894 311.018 285.587 311.172 286.28C311.312 286.979 311.512 287.665 311.769 288.33C311.785 288.358 311.81 288.379 311.839 288.391C311.869 288.404 311.902 288.405 311.933 288.397C311.964 288.388 311.992 288.369 312.011 288.343C312.03 288.317 312.039 288.285 312.038 288.253C311.932 287.925 311.788 287.579 311.682 287.232Z" fill="#263238"/>
<path d="M327.774 283.152C326.734 283.306 325.685 283.383 324.627 283.479C323.568 283.575 322.538 283.71 321.489 283.874C321.431 283.874 321.431 283.97 321.489 283.96C322.538 283.893 323.587 283.806 324.636 283.671C325.685 283.537 326.725 283.383 327.783 283.306C327.879 283.296 327.87 283.142 327.774 283.152Z" fill="#263238"/>
<path d="M353.604 301.235C353.19 292.141 352.641 283.056 351.679 273.999C351.227 269.486 350.716 264.982 350.081 260.526C349.52 256.11 348.649 251.74 347.473 247.447C346.667 244.109 345.187 240.972 343.123 238.227C342.104 236.892 340.762 235.839 339.223 235.165C337.684 234.492 335.999 234.221 334.327 234.378C330.352 234.869 327.138 237.38 324.366 240.104C321.258 243.164 318.409 246.504 315.531 249.728C314.8 250.556 314.078 251.393 313.356 252.23C313.299 252.307 313.405 252.413 313.472 252.336C316.292 249.102 319.246 245.955 322.278 242.953C325.107 240.171 328.052 237.178 331.902 235.985C333.724 235.407 335.674 235.361 337.522 235.85C338.994 236.315 340.321 237.154 341.372 238.285C343.585 240.576 344.817 243.684 345.702 246.696C348.147 255.06 349.023 263.827 349.927 272.46C350.832 281.092 351.477 290.023 351.919 298.839C352.362 307.654 352.709 316.556 353.565 325.391C353.671 326.479 353.806 327.566 353.95 328.654C354.037 329.375 355.172 329.385 355.115 328.654C354.431 319.511 354.008 310.378 353.604 301.235Z" fill="#263238"/>
<path d="M323.885 241.066C323.885 241.066 329.082 231.442 322.923 228.363C316.763 225.283 296.245 248.207 290.25 281.737C290.25 281.737 323.423 267.06 334.693 252.432C345.962 237.804 333.201 234.589 323.885 241.066Z" fill="#E0E0E0"/>
<path d="M328.765 248.881C325.04 248.881 321.316 248.602 317.591 248.621L319.689 246.225C320.725 245.161 321.69 244.029 322.576 242.837C322.625 242.76 322.519 242.654 322.442 242.712C321.429 243.579 320.486 244.525 319.622 245.541C318.66 246.504 317.755 247.524 316.831 248.525C315.407 250.074 314.011 251.633 312.616 253.212C312.616 253.058 312.616 252.904 312.616 252.759C312.616 252.105 312.616 251.451 312.616 250.835C312.616 249.574 312.616 248.304 312.616 247.043C312.616 244.483 312.616 241.904 312.808 239.344C312.808 239.247 312.664 239.247 312.654 239.344C312.481 241.923 312.212 244.483 312.086 247.043C312.029 248.313 312 249.574 311.981 250.844C311.981 251.489 311.981 252.143 311.981 252.769C311.981 253.125 311.981 253.5 311.981 253.866C311.769 254.116 311.538 254.357 311.326 254.598C308.352 258.004 305.552 261.517 302.761 265.097C302.761 264.905 302.761 264.693 302.713 264.501C302.713 264.106 302.626 263.711 302.588 263.317C302.491 262.46 302.376 261.613 302.241 260.757C302.106 259.9 302.001 259.159 301.866 258.361C301.731 257.562 301.49 256.561 301.423 255.656C301.427 255.645 301.429 255.632 301.427 255.62C301.426 255.607 301.421 255.596 301.414 255.585C301.407 255.575 301.398 255.567 301.387 255.561C301.376 255.555 301.363 255.552 301.351 255.552C301.339 255.552 301.326 255.555 301.315 255.561C301.304 255.567 301.295 255.575 301.288 255.585C301.281 255.596 301.276 255.607 301.275 255.62C301.273 255.632 301.274 255.645 301.279 255.656C301.429 256.561 301.532 257.474 301.587 258.389L301.818 260.853C301.885 261.671 301.962 262.489 302.049 263.317L302.164 264.501C302.164 264.693 302.212 264.895 302.241 265.088C302.25 265.256 302.303 265.418 302.395 265.559L300.98 267.407C299.056 269.9 297.246 272.421 295.399 274.933C295.341 275.01 295.456 275.116 295.514 275.039C297.266 272.758 299.065 270.516 300.884 268.302C302.251 268.36 303.646 268.254 305.013 268.235C306.379 268.215 307.9 268.235 309.324 268.235C309.345 268.235 309.364 268.227 309.379 268.212C309.393 268.198 309.401 268.178 309.401 268.158C309.401 268.137 309.393 268.118 309.379 268.103C309.364 268.089 309.345 268.081 309.324 268.081C307.881 268.081 306.437 268.129 305.003 268.138C303.569 268.148 302.357 268.081 301.048 268.138C302.645 266.214 304.272 264.289 305.86 262.316L307.746 260.199C308.298 260.271 308.855 260.29 309.411 260.256H311.336C312.558 260.256 313.78 260.256 315.012 260.208C317.543 260.208 320.074 260.083 322.605 260.074C322.617 260.078 322.629 260.079 322.642 260.078C322.654 260.076 322.666 260.072 322.676 260.065C322.686 260.058 322.695 260.048 322.7 260.037C322.706 260.026 322.709 260.014 322.709 260.001C322.709 259.989 322.706 259.977 322.7 259.966C322.695 259.955 322.686 259.945 322.676 259.938C322.666 259.931 322.654 259.927 322.642 259.925C322.629 259.923 322.617 259.925 322.605 259.929C320.065 259.929 317.534 259.785 315.002 259.717C313.771 259.717 312.548 259.65 311.317 259.631H309.392C309.026 259.631 308.641 259.631 308.256 259.631L312.442 254.675C312.475 254.653 312.502 254.623 312.519 254.588C313.876 252.981 315.233 251.383 316.61 249.776C316.802 249.564 316.995 249.353 317.177 249.131C321.027 249.247 324.877 248.996 328.726 249.073C328.871 249.035 328.871 248.881 328.765 248.881Z" fill="#263238"/>
<path d="M326.859 255.473H325.955C325.937 255.473 325.92 255.48 325.907 255.493C325.894 255.506 325.887 255.523 325.887 255.541C325.887 255.558 325.894 255.576 325.907 255.588C325.92 255.601 325.937 255.608 325.955 255.608H326.85C326.862 255.602 326.873 255.593 326.881 255.582C326.889 255.57 326.893 255.557 326.894 255.543C326.895 255.53 326.893 255.516 326.886 255.503C326.88 255.491 326.871 255.481 326.859 255.473Z" fill="#263238"/>
<path d="M324.848 255.483C323.654 255.483 322.461 255.483 321.268 255.406L319.487 255.387C318.934 255.32 318.375 255.32 317.822 255.387C317.807 255.387 317.792 255.393 317.782 255.404C317.771 255.415 317.765 255.429 317.765 255.445C317.765 255.46 317.771 255.475 317.782 255.486C317.792 255.496 317.807 255.503 317.822 255.503C318.373 255.613 318.936 255.652 319.497 255.618H321.287H324.867C324.954 255.637 324.954 255.483 324.848 255.483Z" fill="#263238"/>
<path d="M314.425 266.686C311.997 266.277 309.543 266.055 307.082 266.021V266.07C309.526 266.301 311.961 266.435 314.386 266.83C314.482 266.849 314.521 266.695 314.425 266.686Z" fill="#263238"/>
<path d="M304.445 256.003C304.445 255.791 304.397 255.579 304.368 255.367C304.31 254.886 304.233 254.405 304.156 253.933C304.012 253.019 303.858 252.114 303.685 251.2C303.685 251.123 303.521 251.142 303.531 251.2C303.646 252.163 303.752 253.077 303.839 254.02L303.954 255.406C303.941 255.849 304.003 256.292 304.137 256.715C304.156 256.744 304.183 256.766 304.215 256.78C304.247 256.795 304.282 256.799 304.316 256.794C304.35 256.789 304.382 256.775 304.409 256.752C304.435 256.729 304.454 256.7 304.464 256.667C304.498 256.446 304.491 256.221 304.445 256.003Z" fill="#263238"/>
<path d="M353.276 228.719C352.083 226.506 350.572 223.589 347.608 223.772C345.163 223.926 344.057 226.419 343.537 228.488C341.92 234.869 341.805 241.605 341.497 248.15C340.823 261.979 340.226 275.818 340.14 289.667C340.14 293.517 340.14 297.366 340.14 301.216C340.14 305.133 340.14 309.069 340.409 312.976C340.409 313.053 340.44 313.126 340.494 313.181C340.548 313.235 340.621 313.265 340.698 313.265C340.774 313.265 340.848 313.235 340.902 313.181C340.956 313.126 340.987 313.053 340.987 312.976C340.987 309.627 340.89 306.24 340.881 302.929C340.871 299.618 340.881 296.394 340.938 293.122C341.048 286.507 341.224 279.893 341.468 273.278C341.718 266.705 342.007 260.131 342.286 253.558C342.421 250.277 342.565 246.985 342.709 243.703C342.854 240.422 342.988 237.342 343.354 234.176C343.556 232.395 343.816 230.625 344.191 228.883C344.374 227.583 344.903 226.357 345.722 225.331C346.287 224.773 347.033 224.435 347.825 224.379C348.618 224.322 349.404 224.551 350.043 225.023C351.399 226.001 352.461 227.333 353.113 228.873C353.133 228.895 353.161 228.907 353.191 228.908C353.221 228.909 353.25 228.898 353.271 228.878C353.293 228.857 353.306 228.829 353.307 228.799C353.308 228.77 353.297 228.741 353.276 228.719Z" fill="#263238"/>
<path d="M352.468 227.66C352.468 227.66 350.033 219.056 355.423 223.358C364.392 230.519 364.71 246.1 364.71 246.1C364.71 246.1 348.763 236.841 346.781 230.701C343.826 221.636 352.468 227.66 352.468 227.66Z" fill="#E0E0E0"/>
<path d="M361.351 239.719C361.207 239.478 361.053 239.247 360.899 239.007C360.918 238.763 360.918 238.519 360.899 238.275C360.899 237.91 360.899 237.534 360.899 237.169C360.899 236.437 360.899 235.706 360.976 234.984C360.976 234.963 360.968 234.944 360.953 234.929C360.939 234.915 360.919 234.907 360.899 234.907C360.879 234.907 360.859 234.915 360.844 234.929C360.83 234.944 360.822 234.963 360.822 234.984C360.822 235.696 360.755 236.418 360.735 237.13C360.735 237.486 360.735 237.842 360.735 238.198C360.735 238.333 360.735 238.497 360.735 238.66C360.11 237.698 359.465 236.735 358.811 235.773C358.618 235.494 358.416 235.225 358.223 234.955C358.121 234.022 358.105 233.081 358.175 232.145C358.175 231.182 358.175 230.143 358.233 229.142C358.233 229.046 358.079 229.046 358.079 229.142C358.079 230.182 358.002 231.221 357.944 232.26C357.882 233 357.862 233.742 357.887 234.483C356.347 232.395 354.711 230.374 353.075 228.363C353.017 228.295 352.901 228.363 352.959 228.459C353.979 229.758 354.961 231.086 355.923 232.434C354.047 231.991 352.141 231.741 350.236 231.471C350.139 231.471 350.101 231.606 350.236 231.625C352.257 231.933 354.239 232.434 356.231 232.876C356.992 233.954 357.752 235.032 358.493 236.12L359.398 237.448H359.321L358.695 237.361L357.367 237.246C356.453 237.169 355.529 237.12 354.605 237.072C354.509 237.072 354.518 237.226 354.605 237.226C355.51 237.226 356.414 237.313 357.309 237.409L358.743 237.582L359.359 237.659H359.542C360.052 238.41 360.572 239.161 361.072 239.911C361.977 241.249 362.785 242.673 363.738 243.953C363.75 243.964 363.766 243.971 363.782 243.972C363.798 243.973 363.815 243.969 363.829 243.961C363.843 243.952 363.854 243.939 363.86 243.924C363.866 243.909 363.867 243.892 363.863 243.876C363.11 242.441 362.271 241.053 361.351 239.719Z" fill="#263238"/>
<path d="M357.386 229.999C357.386 229.662 357.386 229.325 357.386 228.988C357.367 228.285 357.396 227.58 357.473 226.881C357.477 226.869 357.479 226.856 357.477 226.844C357.475 226.832 357.471 226.82 357.464 226.81C357.457 226.8 357.447 226.791 357.436 226.786C357.425 226.78 357.413 226.777 357.401 226.777C357.388 226.777 357.376 226.78 357.365 226.786C357.354 226.791 357.345 226.8 357.337 226.81C357.33 226.82 357.326 226.832 357.324 226.844C357.323 226.856 357.324 226.869 357.328 226.881C357.328 227.583 357.251 228.276 357.213 228.969C357.213 229.325 357.213 229.672 357.213 230.018V230.499C357.189 230.665 357.189 230.834 357.213 231C357.213 231.018 357.22 231.035 357.233 231.047C357.245 231.06 357.262 231.067 357.28 231.067C357.298 231.067 357.315 231.06 357.328 231.047C357.341 231.035 357.348 231.018 357.348 231C357.372 230.847 357.372 230.691 357.348 230.538L357.386 229.999Z" fill="#263238"/>
<path d="M355.413 233.559C354.816 233.453 354.21 233.425 353.613 233.376C353.016 233.328 352.304 233.261 351.688 233.174C351.668 233.174 351.648 233.182 351.634 233.197C351.619 233.211 351.611 233.231 351.611 233.251C351.611 233.272 351.619 233.291 351.634 233.306C351.648 233.32 351.668 233.328 351.688 233.328C352.949 233.405 354.2 233.636 355.461 233.675C355.471 233.684 355.48 233.569 355.413 233.559Z" fill="#263238"/>
<path d="M360.417 233.608C360.466 233.675 360.417 233.868 360.417 233.945V234.82C360.417 235.022 360.417 235.225 360.417 235.427C360.384 235.598 360.384 235.775 360.417 235.946C360.417 235.946 360.466 235.946 360.475 235.946C360.494 235.864 360.494 235.778 360.475 235.696C360.47 235.603 360.47 235.51 360.475 235.417V234.82C360.475 234.618 360.475 234.416 360.475 234.214V233.945C360.475 233.858 360.475 233.675 360.475 233.608C360.475 233.54 360.321 233.463 360.417 233.608Z" fill="#263238"/>
<path d="M353.643 274.635C350.294 272.123 347.281 268.504 342.768 268.321C339.043 268.177 336.435 270.977 334.943 274.096C334.197 275.759 333.589 277.481 333.125 279.244C332.451 281.593 331.809 283.957 331.2 286.337C330.038 291.014 329.044 295.73 328.216 300.484C327.764 303.131 327.341 305.787 327.004 308.453C326.581 311.155 326.32 313.881 326.224 316.614C326.223 316.719 326.26 316.821 326.329 316.9C326.399 316.979 326.495 317.029 326.599 317.041C326.704 317.053 326.809 317.026 326.894 316.965C326.98 316.904 327.039 316.813 327.061 316.71C327.514 314.478 327.706 312.177 328.024 309.925C328.341 307.673 328.698 305.393 329.073 303.141C329.843 298.649 330.735 294.158 331.748 289.667C332.711 285.442 333.673 281.16 335.011 277.05C335.973 274.105 337.552 270.669 340.737 269.611C345.549 268.004 349.966 272.094 353.508 274.76C353.614 274.808 353.72 274.692 353.643 274.635Z" fill="#263238"/>
<path d="M350.178 272.229C350.178 272.229 347.079 263.404 351.554 261.642C358.291 259.054 375.787 278.802 372.351 309.059C372.351 309.059 358.81 301.601 348.801 293.199C338.793 284.798 336.29 273.836 340.65 271.007C345.01 268.177 350.178 272.229 350.178 272.229Z" fill="#E0E0E0"/>
<path d="M370.33 302.601C369.864 301.545 369.321 300.525 368.704 299.55C368.126 298.511 367.549 297.481 366.952 296.461C365.787 294.469 364.633 292.477 363.439 290.494L362.852 289.532C362.852 289.416 362.9 289.291 362.92 289.176L363.122 288.3C363.276 287.646 363.391 286.982 363.507 286.317C363.757 285.028 363.978 283.719 364.325 282.468C364.325 282.381 364.2 282.352 364.18 282.468C363.901 283.758 363.487 285.037 363.112 286.317C362.92 286.943 362.717 287.559 362.554 288.194L362.381 288.839C360.947 286.481 359.493 284.133 357.896 281.862C357.999 281.551 358.054 281.226 358.059 280.899C358.108 280.457 358.156 280.014 358.213 279.571C358.329 278.609 358.444 277.579 358.589 276.588C358.877 274.663 359.166 272.738 359.647 270.813C359.647 270.717 359.522 270.688 359.503 270.813C359.012 272.738 358.493 274.663 358.127 276.588C357.954 277.55 357.78 278.512 357.655 279.475C357.598 279.956 357.54 280.437 357.492 280.918C357.492 281.053 357.492 281.207 357.434 281.352C356.953 280.668 356.472 279.975 355.961 279.311C354.412 277.271 352.805 275.288 351.149 273.306C351.092 273.229 350.957 273.306 351.024 273.393C353.796 276.937 356.342 280.653 358.647 284.518L359.965 286.664L359.522 286.606C358.954 286.529 358.387 286.5 357.819 286.443L354.393 286.144C352.112 285.961 349.821 285.827 347.55 285.586C347.454 285.586 347.425 285.721 347.55 285.73C349.86 286 352.15 286.366 354.45 286.693C355.586 286.856 356.712 287.01 357.848 287.155C358.707 287.325 359.58 287.413 360.456 287.415C361.351 288.877 362.255 290.302 363.151 291.784C362.948 291.784 362.737 291.784 362.544 291.784H359.282C357.809 291.784 356.337 291.784 354.874 291.784C354.768 291.784 354.787 291.928 354.874 291.928C356.366 291.928 357.848 292.024 359.339 292.101L361.457 292.227L362.515 292.304C362.832 292.377 363.161 292.377 363.478 292.304L365.768 296.018C366.471 297.164 367.183 298.299 367.905 299.435C368.585 300.639 369.354 301.79 370.205 302.88C370.243 302.745 370.368 302.697 370.33 302.601Z" fill="#263238"/>
<path d="M363.873 278.148C363.738 279.123 363.535 280.087 363.266 281.035C363.016 281.997 362.737 282.959 362.419 283.922C362.414 283.934 362.412 283.947 362.412 283.961C362.412 283.974 362.415 283.987 362.421 283.999C362.427 284.011 362.435 284.022 362.445 284.031C362.455 284.04 362.467 284.046 362.479 284.05C362.492 284.054 362.506 284.056 362.519 284.054C362.532 284.053 362.545 284.049 362.556 284.042C362.568 284.035 362.578 284.026 362.586 284.016C362.594 284.005 362.599 283.993 362.602 283.98C362.901 283.017 363.17 282.055 363.401 281.092C363.632 280.13 363.786 279.168 364.027 278.157C364.028 278.137 364.021 278.117 364.007 278.101C363.994 278.086 363.975 278.077 363.954 278.075C363.934 278.074 363.914 278.081 363.899 278.094C363.883 278.108 363.874 278.127 363.873 278.148Z" fill="#263238"/>
<path d="M353.922 284.057C353.714 283.882 353.452 283.783 353.181 283.777L351.901 283.604C351.111 283.498 350.313 283.412 349.524 283.315C347.868 283.123 346.223 282.959 344.567 282.757C344.471 282.757 344.442 282.892 344.567 282.902C346.126 283.094 347.676 283.335 349.235 283.537L351.516 283.835L352.622 283.951C353.049 283.955 353.472 284.029 353.874 284.172C353.887 284.172 353.9 284.168 353.911 284.161C353.923 284.154 353.932 284.143 353.937 284.131C353.942 284.118 353.943 284.104 353.941 284.091C353.938 284.078 353.931 284.066 353.922 284.057Z" fill="#263238"/>
<path d="M363.853 297.365C363.074 297.298 362.284 297.269 361.505 297.25H360.321H359.753C359.507 297.274 359.259 297.274 359.012 297.25C358.906 297.25 358.897 297.414 359.012 297.394C359.243 297.37 359.475 297.37 359.705 297.394H360.321L361.495 297.471C362.275 297.519 363.064 297.568 363.843 297.568C363.94 297.529 363.949 297.365 363.853 297.365Z" fill="#263238"/>
<path d="M368.627 293.978L368.887 292.65C369.041 291.774 369.204 290.899 369.368 290.033C369.368 290.012 369.36 289.993 369.345 289.978C369.331 289.964 369.311 289.956 369.291 289.956C369.27 289.956 369.251 289.964 369.236 289.978C369.222 289.993 369.214 290.012 369.214 290.033L368.636 292.583C368.54 293.006 368.444 293.43 368.357 293.853C368.357 294.055 368.28 294.248 368.232 294.45C368.171 294.652 368.148 294.865 368.165 295.075C368.167 295.095 368.174 295.113 368.187 295.128C368.199 295.143 368.216 295.154 368.235 295.159C368.254 295.164 368.274 295.164 368.292 295.157C368.31 295.151 368.326 295.139 368.338 295.124C368.506 294.764 368.604 294.375 368.627 293.978Z" fill="#263238"/>
<path d="M322.759 313.226L323.702 323.957L326.907 360.172H355.269L359.272 323.957L360.456 313.226H322.759Z" fill="#37474F"/>
<path d="M322.759 313.226L323.702 323.957H359.272L360.456 313.226H322.759Z" fill="#263238"/>
<path d="M319.949 319.01H363.267V310.31H319.949V319.01Z" fill="#37474F"/>
<path d="M169.354 277.646C169.354 262.248 171.869 248.412 176.899 236.138C181.929 223.864 192.304 213.172 208.023 204.062C212.745 201.232 218.564 198.024 225.481 194.438C232.598 190.7 239.382 186.36 245.758 181.465C252.277 176.535 257.935 170.562 262.504 163.786C267.11 156.878 269.497 148.729 269.346 140.428C269.484 134.383 268.198 128.389 265.593 122.932C263.19 118.06 259.821 113.728 255.69 110.2C251.448 106.664 246.539 104.017 241.254 102.414C235.837 100.704 230.19 99.8308 224.509 99.8251C218.07 99.737 211.678 100.928 205.704 103.328C200.207 105.593 195.051 108.608 190.382 112.288C185.832 115.89 181.714 120.008 178.112 124.558C174.796 128.695 171.727 133.023 168.921 137.522H161.819L127.875 109.228C131.801 99.7132 137.303 90.9286 144.149 83.2431C150.843 75.7494 158.63 69.3091 167.246 64.1396C176.012 58.9285 185.469 54.9822 195.339 52.4177C205.498 49.7342 215.964 48.3851 226.472 48.4045C238.453 48.4112 250.37 50.1586 261.849 53.5918C273.297 56.9608 283.959 62.5747 293.214 70.1064C302.775 78.0204 310.501 87.9176 315.859 99.1129C321.672 110.905 324.578 124.979 324.578 141.333C324.724 150.342 323.533 159.322 321.046 167.982C318.788 175.472 315.362 182.559 310.893 188.981C306.468 195.294 301.236 201.001 295.331 205.958C288.919 211.299 282.14 216.184 275.044 220.576C268.75 224.362 262.462 227.98 256.181 231.432C250.102 234.749 244.339 238.614 238.964 242.981C233.902 247.083 229.591 252.033 226.222 257.609C222.924 263.114 221.275 269.796 221.275 277.656L169.354 277.646ZM170.316 387.541V322.455H222.671V387.541H170.316Z" fill="#E0E0E0"/>
<g opacity="0.2">
<path d="M169.354 277.646C169.354 262.248 171.869 248.412 176.899 236.138C181.929 223.864 192.304 213.172 208.023 204.062C212.745 201.232 218.564 198.024 225.481 194.438C232.598 190.7 239.382 186.36 245.758 181.465C252.277 176.535 257.935 170.562 262.504 163.786C267.11 156.878 269.497 148.729 269.346 140.428C269.484 134.383 268.198 128.389 265.593 122.932C263.19 118.06 259.821 113.728 255.69 110.2C251.448 106.664 246.539 104.017 241.254 102.414C235.837 100.704 230.19 99.8308 224.509 99.8251C218.07 99.737 211.678 100.928 205.704 103.328C200.207 105.593 195.051 108.608 190.382 112.288C185.832 115.89 181.714 120.008 178.112 124.558C174.796 128.695 171.727 133.023 168.921 137.522H161.819L127.875 109.228C131.801 99.7132 137.303 90.9286 144.149 83.2431C150.843 75.7494 158.63 69.3091 167.246 64.1396C176.012 58.9285 185.469 54.9822 195.339 52.4177C205.498 49.7342 215.964 48.3851 226.472 48.4045C238.453 48.4112 250.37 50.1586 261.849 53.5918C273.297 56.9608 283.959 62.5747 293.214 70.1064C302.775 78.0204 310.501 87.9176 315.859 99.1129C321.672 110.905 324.578 124.979 324.578 141.333C324.724 150.342 323.533 159.322 321.046 167.982C318.788 175.472 315.362 182.559 310.893 188.981C306.468 195.294 301.236 201.001 295.331 205.958C288.919 211.299 282.14 216.184 275.044 220.576C268.75 224.362 262.462 227.98 256.181 231.432C250.102 234.749 244.339 238.614 238.964 242.981C233.902 247.083 229.591 252.033 226.222 257.609C222.924 263.114 221.275 269.796 221.275 277.656L169.354 277.646ZM170.316 387.541V322.455H222.671V387.541H170.316Z" fill="white"/>
</g>
<path d="M162.29 277.646C162.29 262.248 164.805 248.412 169.835 236.138C174.865 223.864 185.243 213.172 200.968 204.062C205.684 201.232 211.5 198.024 218.416 194.438C225.538 190.703 232.325 186.362 238.703 181.465C245.22 176.533 250.878 170.56 255.449 163.786C260.048 156.875 262.431 148.728 262.282 140.428C262.406 134.397 261.114 128.421 258.51 122.98C256.106 118.108 252.737 113.776 248.607 110.248C244.364 106.712 239.455 104.065 234.171 102.462C228.753 100.752 223.106 99.879 217.425 99.8732C210.986 99.7666 204.591 100.941 198.61 103.328C193.111 105.594 187.952 108.609 183.279 112.288C178.732 115.891 174.618 120.008 171.019 124.559C167.699 128.695 164.627 133.024 161.818 137.522L120.782 109.228C124.705 99.7119 130.207 90.9268 137.056 83.2431C143.747 75.7467 151.535 69.306 160.153 64.1397C168.916 58.9301 178.37 54.9839 188.236 52.4177C198.404 49.7309 208.88 48.3818 219.398 48.4046C231.379 48.4106 243.297 50.158 254.775 53.5919C266.223 56.9587 276.886 62.5729 286.14 70.1065C295.703 78.0183 303.43 87.916 308.785 99.1129C314.598 110.905 317.507 124.979 317.514 141.333C317.656 150.342 316.463 159.323 313.972 167.982C311.709 175.475 308.272 182.563 303.79 188.981C299.365 195.294 294.133 201.001 288.228 205.958C281.82 211.304 275.04 216.189 267.941 220.576C261.66 224.362 255.372 227.98 249.078 231.432C242.999 234.749 237.236 238.614 231.861 242.981C226.802 247.083 222.494 252.033 219.128 257.609C215.831 263.114 214.179 269.796 214.172 277.656L162.29 277.646ZM163.252 387.542V322.455H215.548V387.542H163.252Z" fill="#E0E0E0"/>
</svg>
