<svg xmlns="http://www.w3.org/2000/svg" xmlns:xlink="http://www.w3.org/1999/xlink" width="500" zoomAndPan="magnify" viewBox="0 0 375 374.999991" height="500" preserveAspectRatio="xMidYMid meet" version="1.0"><defs><g/></defs><rect x="-37.5" width="450" fill="#ffffff" y="-37.499999" height="449.999989" fill-opacity="1"/><rect x="-37.5" width="450" fill="#8d0339" y="-37.499999" height="449.999989" fill-opacity="1"/><g fill="#ffffff" fill-opacity="1"><g transform="translate(75.012876, 197.860007)"><g><path d="M 54.40625 -25.546875 C 54.945312 -23.472656 55.128906 -21.375 54.953125 -19.25 C 54.679688 -16.28125 53.867188 -13.488281 52.515625 -10.875 C 50.566406 -7.375 47.828125 -4.664062 44.296875 -2.75 C 41.628906 -1.332031 38.8125 -0.34375 35.84375 0.21875 C 32.875 0.789062 29.890625 1.078125 26.890625 1.078125 C 21.609375 1.109375 16.332031 1.109375 11.0625 1.078125 L 2.875 -20.234375 L 21.578125 -20.234375 C 28.566406 -20.503906 33.953125 -23.609375 37.734375 -29.546875 C 35.242188 -27.597656 32.316406 -26.101562 28.953125 -25.0625 C 25.597656 -24.03125 21.820312 -23.515625 17.625 -23.515625 C 14.570312 -23.515625 11.945312 -24.039062 9.75 -25.09375 C 7.5625 -26.144531 5.800781 -27.5625 4.46875 -29.34375 C 3.132812 -31.125 2.242188 -33.109375 1.796875 -35.296875 C 1.046875 -39.316406 1.253906 -42.851562 2.421875 -45.90625 C 3.597656 -48.96875 5.117188 -51.515625 6.984375 -53.546875 C 8.859375 -55.585938 10.472656 -57.0625 11.828125 -57.96875 C 11.285156 -57.507812 10.847656 -56.859375 10.515625 -56.015625 C 10.191406 -55.179688 10.179688 -54.132812 10.484375 -52.875 C 10.691406 -52.007812 11.4375 -50.898438 12.71875 -49.546875 C 14.007812 -48.203125 15.84375 -47.441406 18.21875 -47.265625 C 23.726562 -47.203125 28.6875 -47.546875 33.09375 -48.296875 C 37.5 -49.046875 41.015625 -49.835938 43.640625 -50.671875 C 46.265625 -51.515625 47.578125 -51.9375 47.578125 -51.9375 Z M 54.40625 -25.546875 "/></g></g></g><g fill="#ffffff" fill-opacity="1"><g transform="translate(131.359735, 197.860007)"><g><path d="M 23.96875 -21.359375 L 31.96875 0 L 0.453125 -39.796875 L 0.453125 -67.453125 C 0.453125 -69.609375 0.765625 -71.722656 1.390625 -73.796875 C 3.160156 -79.304688 6.550781 -83.503906 11.5625 -86.390625 C 12.84375 -87.078125 14.160156 -87.675781 15.515625 -88.1875 C 18.484375 -89.414062 21.46875 -90.597656 24.46875 -91.734375 C 22.695312 -88.492188 21.796875 -85.03125 21.765625 -81.34375 L 21.765625 -21.359375 Z M 23.96875 -21.359375 "/></g></g></g><g fill="#ffffff" fill-opacity="1"><g transform="translate(159.060982, 197.860007)"><g><path d="M 3.828125 -49.546875 C 2.953125 -51.648438 2.019531 -54.019531 1.03125 -56.65625 C -0.0390625 -59.269531 -0.9375 -61.640625 -1.65625 -63.765625 L 0 -64.484375 L 11.6875 -69.5625 C 12.53125 -67.46875 13.460938 -65.097656 14.484375 -62.453125 C 15.523438 -59.847656 16.40625 -57.484375 17.125 -55.359375 L 15.515625 -54.640625 Z M 25.1875 -47.171875 C 27.675781 -46.691406 29.984375 -45.394531 32.109375 -43.28125 C 34.234375 -41.164062 35.898438 -38.4375 37.109375 -35.09375 C 38.328125 -31.75 38.789062 -27.992188 38.5 -23.828125 C 37.800781 -16.484375 35.0625 -10.675781 30.28125 -6.40625 C 25.5 -2.132812 19.40625 0 12 0 L 4.1875 0 L -4.1875 -21.3125 L -1.34375 -21.3125 C 2.3125 -21.3125 5.234375 -21.6875 7.421875 -22.4375 C 9.609375 -23.1875 11.265625 -24.113281 12.390625 -25.21875 C 13.515625 -26.332031 14.265625 -27.457031 14.640625 -28.59375 C 15.015625 -29.738281 15.175781 -30.726562 15.125 -31.5625 C 15.082031 -32.40625 15.015625 -32.929688 14.921875 -33.140625 C 14.265625 -34.492188 13.484375 -35.429688 12.578125 -35.953125 C 11.679688 -36.472656 10.710938 -36.8125 9.671875 -36.96875 C 7.273438 -37.289062 5.6875 -36.941406 4.90625 -35.921875 C 5.195312 -37.546875 5.976562 -39.398438 7.25 -41.484375 C 8.53125 -43.566406 10.585938 -45.242188 13.421875 -46.515625 C 16.253906 -47.796875 20.175781 -48.015625 25.1875 -47.171875 Z M 25.1875 -47.171875 "/></g></g></g><g fill="#ffffff" fill-opacity="1"><g transform="translate(197.64486, 197.860007)"><g><path d="M 75.09375 -46.359375 C 78.15625 -45.429688 80.847656 -43.332031 83.171875 -40.0625 C 85.492188 -36.800781 87.101562 -32.734375 88 -27.859375 C 88.894531 -22.984375 88.71875 -17.710938 87.46875 -12.046875 C 86.5625 -8.359375 84.660156 -5.203125 81.765625 -2.578125 C 78.878906 0.0351562 75.578125 1.523438 71.859375 1.890625 C 67.421875 2.128906 63.859375 1.425781 61.171875 -0.21875 C 58.492188 -1.875 56.460938 -4.019531 55.078125 -6.65625 C 54.578125 -5.25 53.710938 -3.820312 52.484375 -2.375 C 51.253906 -0.9375 49.71875 0.296875 47.875 1.328125 C 46.03125 2.359375 43.9375 2.875 41.59375 2.875 C 39.28125 2.875 37.113281 2.257812 35.09375 1.03125 C 33.070312 -0.195312 31.226562 -1.734375 29.5625 -3.578125 C 27.90625 -5.421875 26.453125 -7.316406 25.203125 -9.265625 C 23.960938 -11.210938 22.953125 -12.953125 22.171875 -14.484375 C 22.140625 -14.085938 21.96875 -13.347656 21.65625 -12.265625 C 21.34375 -11.191406 20.796875 -9.960938 20.015625 -8.578125 C 19.234375 -7.203125 18.160156 -5.863281 16.796875 -4.5625 C 15.429688 -3.257812 13.707031 -2.171875 11.625 -1.296875 C 9.539062 -0.429688 7 0 4 0 L -4.1875 -21.3125 C -0.882812 -21.3125 1.941406 -21.929688 4.296875 -23.171875 C 6.648438 -24.421875 8.5625 -25.929688 10.03125 -27.703125 C 11.5 -29.472656 12.582031 -31.210938 13.28125 -32.921875 C 13.988281 -34.628906 14.328125 -36.003906 14.296875 -37.046875 C 14.296875 -37.046875 14.570312 -36.414062 15.125 -35.15625 C 15.6875 -33.90625 16.472656 -32.367188 17.484375 -30.546875 C 18.503906 -28.734375 19.703125 -26.921875 21.078125 -25.109375 C 22.460938 -23.296875 23.988281 -21.757812 25.65625 -20.5 C 27.320312 -19.238281 29.082031 -18.609375 30.9375 -18.609375 C 33.1875 -18.609375 35.097656 -19.242188 36.671875 -20.515625 C 38.242188 -21.796875 39.550781 -23.398438 40.59375 -25.328125 C 41.644531 -27.265625 42.476562 -29.253906 43.09375 -31.296875 C 43.707031 -33.335938 44.164062 -35.164062 44.46875 -36.78125 C 44.707031 -34.5 45.359375 -31.921875 46.421875 -29.046875 C 47.492188 -26.171875 49.003906 -23.695312 50.953125 -21.625 C 52.898438 -19.5625 55.296875 -18.617188 58.140625 -18.796875 C 60.210938 -19.035156 61.953125 -19.945312 63.359375 -21.53125 C 64.765625 -23.125 65.289062 -25.195312 64.9375 -27.75 C 64.457031 -30.019531 63.625 -31.835938 62.4375 -33.203125 C 61.25 -34.566406 59.953125 -35.398438 58.546875 -35.703125 C 57.347656 -35.878906 56.375 -35.757812 55.625 -35.34375 C 54.875 -34.925781 54.289062 -34.476562 53.875 -34 C 54.195312 -35.644531 55.097656 -37.6875 56.578125 -40.125 C 58.066406 -42.570312 60.3125 -44.53125 63.3125 -46 C 66.3125 -47.46875 70.238281 -47.585938 75.09375 -46.359375 Z M 75.09375 -46.359375 "/></g></g></g><g fill="#ffffff" fill-opacity="1"><g transform="translate(287.539008, 197.860007)"><g><path d="M 8.40625 -2.921875 C 5.4375 -1.691406 2.453125 -0.507812 -0.546875 0.625 C 1.191406 -2.632812 2.078125 -6.097656 2.109375 -9.765625 L 2.109375 -51.3125 L 2.15625 -51.3125 L 2.109375 -66.859375 C 2.140625 -69.023438 2.457031 -71.140625 3.0625 -73.203125 C 4.820312 -78.722656 8.222656 -82.921875 13.265625 -85.796875 C 14.523438 -86.484375 15.828125 -87.082031 17.171875 -87.59375 C 20.140625 -88.820312 23.125 -90.007812 26.125 -91.15625 C 24.382812 -87.914062 23.5 -84.453125 23.46875 -80.765625 L 23.46875 -23.703125 C 23.46875 -21.515625 23.15625 -19.398438 22.53125 -17.359375 C 20.757812 -11.835938 17.367188 -7.625 12.359375 -4.71875 C 11.078125 -4.0625 9.757812 -3.460938 8.40625 -2.921875 Z M 25.265625 11.640625 L 29.28125 22.296875 C 28.945312 22.628906 27.941406 23.363281 26.265625 24.5 C 24.585938 25.644531 22.4375 26.90625 19.8125 28.28125 C 17.1875 29.664062 14.300781 30.894531 11.15625 31.96875 C 8.15625 32.875 5.332031 32.695312 2.6875 31.4375 C 0.0507812 30.175781 -1.847656 28.109375 -3.015625 25.234375 L -3.78125 23.25 C 1.019531 22.289062 3.421875 21.8125 3.421875 21.8125 C 3.421875 21.8125 3.171875 21.503906 2.671875 20.890625 C 2.179688 20.273438 1.6875 19.335938 1.1875 18.078125 C 0.695312 16.816406 0.453125 15.195312 0.453125 13.21875 C 0.453125 11.925781 0.675781 10.679688 1.125 9.484375 C 1.632812 8.015625 2.398438 6.710938 3.421875 5.578125 C 5.097656 3.597656 7.210938 2.144531 9.765625 1.21875 C 11.972656 0.550781 13.992188 0.53125 15.828125 1.15625 C 17.660156 1.789062 19.023438 2.859375 19.921875 4.359375 C 20.878906 6.160156 21.117188 7.726562 20.640625 9.0625 C 20.160156 10.394531 19.46875 11.425781 18.5625 12.15625 C 17.664062 12.894531 17.21875 13.265625 17.21875 13.265625 C 17.21875 13.265625 17.394531 12.941406 17.75 12.296875 C 18.113281 11.648438 18.070312 10.96875 17.625 10.25 C 16.8125 9.144531 15.835938 8.59375 14.703125 8.59375 C 13.773438 8.59375 13.0625 8.875 12.5625 9.4375 C 12.070312 10.007812 11.78125 10.65625 11.6875 11.375 C 11.601562 12.09375 11.707031 12.722656 12 13.265625 C 12.8125 14.523438 13.929688 15.175781 15.359375 15.21875 C 16.785156 15.257812 18.253906 14.988281 19.765625 14.40625 C 21.273438 13.820312 22.566406 13.210938 23.640625 12.578125 C 24.722656 11.953125 25.265625 11.640625 25.265625 11.640625 Z M 25.265625 11.640625 "/></g></g></g><g fill="#ffffff" fill-opacity="1"><g transform="translate(135.856109, 242.064315)"><g><path d="M 13.25 -25.796875 L 13.25 -25 L 10.40625 -25 L 10.40625 -0.8125 L 13.25 -0.8125 L 13.25 0 L 0.953125 0 L 0.953125 -0.8125 L 3.796875 -0.8125 L 3.796875 -25 L 0.953125 -25 L 0.953125 -25.796875 Z M 13.25 -25.796875 "/></g></g></g><g fill="#ffffff" fill-opacity="1"><g transform="translate(150.06095, 242.064315)"><g><path d="M 9.125 0.5625 C 7.945312 0.5625 6.765625 0.46875 5.578125 0.28125 C 4.390625 0.09375 3.335938 -0.171875 2.421875 -0.515625 C 2.296875 -1.242188 2.191406 -2.15625 2.109375 -3.25 C 2.035156 -4.34375 2.015625 -5.207031 2.046875 -5.84375 L 2.5625 -5.984375 L 4.28125 -3.84375 C 5.257812 -2.613281 6.097656 -1.6875 6.796875 -1.0625 C 7.492188 -0.445312 8.332031 -0.140625 9.3125 -0.140625 C 10.457031 -0.140625 11.304688 -0.472656 11.859375 -1.140625 C 12.410156 -1.804688 12.6875 -2.457031 12.6875 -3.09375 C 12.6875 -3.820312 12.457031 -4.347656 12 -4.671875 C 11.539062 -5.003906 10.851562 -5.332031 9.9375 -5.65625 L 6.46875 -6.890625 C 5.675781 -7.171875 5.03125 -7.4375 4.53125 -7.6875 C 4.039062 -7.945312 3.578125 -8.285156 3.140625 -8.703125 C 2.597656 -9.234375 2.234375 -9.800781 2.046875 -10.40625 C 1.859375 -11.007812 1.765625 -11.628906 1.765625 -12.265625 C 1.765625 -14.316406 2.503906 -15.921875 3.984375 -17.078125 C 5.472656 -18.234375 7.375 -18.8125 9.6875 -18.8125 C 10.957031 -18.8125 12.128906 -18.703125 13.203125 -18.484375 C 14.285156 -18.265625 15.03125 -18.039062 15.4375 -17.8125 C 15.5625 -17.28125 15.648438 -16.53125 15.703125 -15.5625 C 15.753906 -14.59375 15.75 -13.726562 15.6875 -12.96875 L 15.15625 -12.921875 L 12.921875 -16.015625 C 12.410156 -16.742188 11.882812 -17.273438 11.34375 -17.609375 C 10.8125 -17.941406 10.132812 -18.109375 9.3125 -18.109375 C 8.519531 -18.109375 7.78125 -17.828125 7.09375 -17.265625 C 6.414062 -16.710938 6.078125 -15.976562 6.078125 -15.0625 C 6.078125 -14.425781 6.335938 -13.945312 6.859375 -13.625 C 7.390625 -13.3125 8.003906 -13.03125 8.703125 -12.78125 L 12.0625 -11.640625 C 12.695312 -11.421875 13.410156 -11.117188 14.203125 -10.734375 C 14.992188 -10.359375 15.597656 -9.929688 16.015625 -9.453125 C 16.359375 -9.046875 16.640625 -8.5625 16.859375 -8 C 17.085938 -7.445312 17.203125 -6.835938 17.203125 -6.171875 C 17.203125 -4.941406 16.867188 -3.8125 16.203125 -2.78125 C 15.535156 -1.75 14.597656 -0.929688 13.390625 -0.328125 C 12.191406 0.265625 10.769531 0.5625 9.125 0.5625 Z M 9.125 0.5625 "/></g></g></g><g fill="#ffffff" fill-opacity="1"><g transform="translate(168.066419, 242.064315)"><g><path d="M 21.484375 -12.96875 L 21.484375 -0.71875 L 23.65625 -0.71875 L 23.65625 0 L 13.25 0 L 13.25 -0.71875 L 15.484375 -0.71875 L 15.484375 -12.734375 C 15.484375 -13.804688 15.234375 -14.597656 14.734375 -15.109375 C 14.472656 -15.390625 14.132812 -15.59375 13.71875 -15.71875 C 13.3125 -15.851562 12.859375 -15.921875 12.359375 -15.921875 C 11.753906 -15.921875 11.191406 -15.820312 10.671875 -15.625 C 10.148438 -15.4375 9.679688 -15.078125 9.265625 -14.546875 L 9.265625 -0.71875 L 11.5 -0.71875 L 11.5 0 L 0.71875 0 L 0.71875 -0.71875 L 3.28125 -0.71875 L 3.28125 -16.390625 L 0.5625 -16.390625 L 0.5625 -17.015625 L 9.265625 -18.71875 L 9.265625 -15.15625 C 9.898438 -16.269531 10.722656 -17.15625 11.734375 -17.8125 C 12.742188 -18.476562 13.976562 -18.8125 15.4375 -18.8125 C 17.1875 -18.8125 18.597656 -18.367188 19.671875 -17.484375 C 20.878906 -16.535156 21.484375 -15.03125 21.484375 -12.96875 Z M 21.484375 -12.96875 "/></g></g></g><g fill="#ffffff" fill-opacity="1"><g transform="translate(192.200394, 242.064315)"><g><path d="M 21.484375 -12.96875 L 21.484375 -0.71875 L 23.65625 -0.71875 L 23.65625 0 L 13.25 0 L 13.25 -0.71875 L 15.484375 -0.71875 L 15.484375 -12.734375 C 15.484375 -13.804688 15.234375 -14.597656 14.734375 -15.109375 C 14.472656 -15.390625 14.132812 -15.59375 13.71875 -15.71875 C 13.3125 -15.851562 12.859375 -15.921875 12.359375 -15.921875 C 11.753906 -15.921875 11.191406 -15.820312 10.671875 -15.625 C 10.148438 -15.4375 9.679688 -15.078125 9.265625 -14.546875 L 9.265625 -0.71875 L 11.5 -0.71875 L 11.5 0 L 0.71875 0 L 0.71875 -0.71875 L 3.28125 -0.71875 L 3.28125 -16.390625 L 0.5625 -16.390625 L 0.5625 -17.015625 L 9.265625 -18.71875 L 9.265625 -15.15625 C 9.898438 -16.269531 10.722656 -17.15625 11.734375 -17.8125 C 12.742188 -18.476562 13.976562 -18.8125 15.4375 -18.8125 C 17.1875 -18.8125 18.597656 -18.367188 19.671875 -17.484375 C 20.878906 -16.535156 21.484375 -15.03125 21.484375 -12.96875 Z M 21.484375 -12.96875 "/></g></g></g><g fill="#ffffff" fill-opacity="1"><g transform="translate(216.334369, 242.064315)"><g><path d="M 17.90625 -11.640625 L 17.90625 -1.859375 L 20.4375 -1.859375 L 20.4375 -1.234375 L 12.6875 0.421875 C 12.5 -0.015625 12.335938 -0.492188 12.203125 -1.015625 C 12.078125 -1.546875 11.984375 -2.175781 11.921875 -2.90625 C 11.609375 -1.914062 11.046875 -1.085938 10.234375 -0.421875 C 9.429688 0.234375 8.394531 0.5625 7.125 0.5625 C 5.132812 0.5625 3.65625 0.0351562 2.6875 -1.015625 C 1.71875 -2.078125 1.234375 -3.289062 1.234375 -4.65625 C 1.234375 -5.320312 1.351562 -5.988281 1.59375 -6.65625 C 1.832031 -7.320312 2.203125 -7.953125 2.703125 -8.546875 L 11.921875 -9.453125 L 11.921875 -13.40625 C 11.921875 -15.332031 11.726562 -16.601562 11.34375 -17.21875 C 10.96875 -17.84375 10.367188 -18.15625 9.546875 -18.15625 C 9.140625 -18.15625 8.664062 -17.914062 8.125 -17.4375 C 7.582031 -16.957031 6.882812 -16.210938 6.03125 -15.203125 L 3.046875 -11.640625 L 2.515625 -11.734375 C 2.453125 -12.210938 2.453125 -12.820312 2.515625 -13.5625 C 2.578125 -14.3125 2.6875 -15.054688 2.84375 -15.796875 C 3.007812 -16.546875 3.1875 -17.125 3.375 -17.53125 C 3.882812 -17.78125 4.523438 -18 5.296875 -18.1875 C 6.078125 -18.382812 6.867188 -18.535156 7.671875 -18.640625 C 8.484375 -18.753906 9.15625 -18.8125 9.6875 -18.8125 C 11.375 -18.8125 12.757812 -18.691406 13.84375 -18.453125 C 14.9375 -18.222656 15.785156 -17.789062 16.390625 -17.15625 C 16.929688 -16.613281 17.316406 -15.890625 17.546875 -14.984375 C 17.785156 -14.085938 17.90625 -12.972656 17.90625 -11.640625 Z M 9.453125 -2 C 10.460938 -2 11.285156 -2.457031 11.921875 -3.375 L 11.921875 -8.359375 L 7.3125 -8.359375 C 7.0625 -7.597656 6.9375 -6.601562 6.9375 -5.375 C 6.9375 -4.101562 7.210938 -3.222656 7.765625 -2.734375 C 8.316406 -2.242188 8.878906 -2 9.453125 -2 Z M 9.453125 -2 "/></g></g></g><g fill="#ffffff" fill-opacity="1"><g transform="translate(237.095289, 242.064315)"><g><path d="M 20.296875 -1.859375 L 22.8125 -1.859375 L 22.8125 -1.234375 L 14.296875 0.46875 L 14.296875 -3.28125 C 13.828125 -1.976562 13.078125 -1.007812 12.046875 -0.375 C 11.015625 0.25 9.878906 0.5625 8.640625 0.5625 C 6.835938 0.5625 5.390625 0.164062 4.296875 -0.625 C 3.203125 -1.414062 2.414062 -2.472656 1.9375 -3.796875 C 1.46875 -5.128906 1.234375 -6.617188 1.234375 -8.265625 C 1.234375 -10.484375 1.597656 -12.375 2.328125 -13.9375 C 3.054688 -15.507812 4.0625 -16.710938 5.34375 -17.546875 C 6.625 -18.390625 8.070312 -18.8125 9.6875 -18.8125 C 10.800781 -18.8125 11.738281 -18.644531 12.5 -18.3125 C 13.257812 -17.976562 13.859375 -17.59375 14.296875 -17.15625 L 14.296875 -25.328125 L 11.59375 -25.328125 L 11.59375 -25.9375 L 20.296875 -27.515625 Z M 11.40625 -2.1875 C 12.039062 -2.1875 12.617188 -2.382812 13.140625 -2.78125 C 13.660156 -3.175781 14.046875 -3.660156 14.296875 -4.234375 L 14.296875 -16.578125 C 13.671875 -16.804688 13.039062 -16.921875 12.40625 -16.921875 C 10.945312 -16.921875 9.796875 -16.238281 8.953125 -14.875 C 8.117188 -13.507812 7.703125 -11.414062 7.703125 -8.59375 C 7.703125 -6.570312 8 -5 8.59375 -3.875 C 9.195312 -2.75 10.132812 -2.1875 11.40625 -2.1875 Z M 11.40625 -2.1875 "/></g></g></g></svg>